<svg width="160" height="32" viewBox="0 0 160 32" fill="none" xmlns="http://www.w3.org/2000/svg">
<g clip-path="url(#clip0_1478_109156)">
<g clip-path="url(#clip1_1478_109156)">
<path d="M13.7495 15.841L11.1011 18.4342C10.1707 17.458 9.10125 16.984 7.83243 16.984C5.77413 16.984 4.19717 18.5467 4.19717 20.6658C4.19717 22.785 5.80434 24.3176 7.83243 24.3176C9.09923 24.3176 10.1707 23.8456 11.1011 22.8673L13.7495 25.4605C12.1444 27.2181 10.1707 28.0818 7.83243 28.0818C5.63516 28.0818 3.77423 27.3848 2.25366 25.9627C0.76129 24.5426 0 22.785 0 20.6658C0 18.5467 0.76129 16.7891 2.25366 15.367C3.77423 13.9449 5.63516 13.2197 7.83243 13.2197C10.1707 13.2197 12.1424 14.0855 13.7495 15.841Z" fill="#1E1E25"/>
<path d="M14.624 20.6659C14.624 18.4624 15.3571 16.6767 16.7931 15.339C18.2311 13.9731 20.09 13.3042 22.3155 13.3042C24.5409 13.3042 26.2327 14.0012 27.5861 15.3671C28.9375 16.733 29.6142 18.4062 29.6142 20.443C29.6142 20.917 29.586 21.363 29.5578 21.7808H18.8212C18.9058 23.454 20.372 24.5407 22.5974 24.5407C23.9206 24.5407 25.0767 24.0947 26.0635 23.1748L28.5145 25.4887C26.853 27.1901 24.7967 28.0538 22.4001 28.0538C20.0034 28.0538 18.2029 27.3849 16.7649 26.0733C15.3289 24.7355 14.624 22.9779 14.624 20.7744V20.6639V20.6659ZM25.3888 19.0751C25.3888 17.7634 24.0072 16.733 22.3175 16.733C20.4868 16.733 18.9924 17.7654 18.8816 19.0751H25.3888Z" fill="#1E1E25"/>
<path d="M31.6983 27.7223V13.6657H35.8955V15.4232C36.4876 14.196 38.0645 13.3604 39.9819 13.3604C43.3895 13.3604 45.3633 15.5357 45.3633 19.1895V22.7308C45.3633 23.8195 45.5888 24.2111 46.2917 24.2111H46.5757L46.7428 24.181V27.6942C46.4045 27.8348 45.7842 27.889 44.9121 27.889C42.4047 27.889 41.1641 26.5512 41.1641 23.8737V19.6896C41.1641 18.0446 40.29 17.0402 38.6264 17.0402C36.9629 17.0402 35.8935 18.1852 35.8935 19.8303V27.7223H31.6963H31.6983Z" fill="#1E1E25"/>
<path d="M50.042 23.0358C50.8295 23.9558 52.3239 24.5684 53.9311 24.5684C55.367 24.5684 56.0719 24.1788 56.0719 23.4255C56.0719 23.1463 55.9028 22.9233 55.5926 22.7566C55.2825 22.5899 54.7185 22.3931 53.8727 22.1982C53.0288 22.0034 52.3783 21.8085 51.9553 21.6679C49.7863 20.9147 48.6886 19.6311 48.6886 17.7631C48.6886 16.341 49.2244 15.2241 50.2938 14.4448C51.3652 13.6353 52.6602 13.2456 54.211 13.2456C56.2109 13.2456 57.8181 13.8582 59.0849 15.0574L57.085 17.7892C56.3257 17.0922 55.3106 16.7588 54.0982 16.7588C53.196 16.7588 52.6884 17.1223 52.6884 17.6506C52.6884 18.0142 52.8294 18.209 53.2805 18.4039C53.8163 18.6268 54.9985 18.8237 56.5775 19.3801C58.9157 20.1614 60.0717 21.4992 60.0717 23.3673C60.0717 26.2396 57.9872 28.1077 53.8163 28.1077C51.0551 28.1077 48.9988 27.2721 47.6172 25.5989L50.04 23.0338L50.042 23.0358Z" fill="#1E1E25"/>
<path d="M63.453 15.5337C64.8064 14.1116 66.4962 13.4146 68.4961 13.4146C70.639 13.4146 72.3005 14.2803 72.7234 15.5056V13.6656H76.9226V22.785C76.9226 23.8998 77.2046 24.3477 77.9659 24.3477C78.1632 24.3477 78.417 24.3196 78.6688 24.2915V27.7504C78.2176 27.889 77.5993 27.9733 76.7816 27.9733C75.8512 27.9733 75.0637 27.8066 74.4716 27.4712C73.8231 27.0534 73.4001 26.5512 73.2028 25.9647C72.2723 27.3306 70.7235 27.9994 68.4961 27.9994C66.4962 27.9994 64.8064 27.3024 63.453 25.9084C62.1298 24.4863 61.4531 22.7588 61.4531 20.6939C61.4531 18.629 62.1298 16.9297 63.453 15.5357V15.5337ZM71.8776 23.2028C72.6107 22.5058 72.9752 21.6681 72.9752 20.6919C72.9752 19.7157 72.6086 18.8781 71.8776 18.2092C71.1727 17.5122 70.2986 17.1788 69.2574 17.1788C68.2161 17.1788 67.3964 17.5122 66.6915 18.2092C65.9866 18.8781 65.6503 19.7157 65.6503 20.6919C65.6503 21.6681 65.9886 22.5037 66.6915 23.2028C67.3964 23.8716 68.2423 24.2071 69.2574 24.2071C70.2724 24.2071 71.1727 23.8716 71.8776 23.2028Z" fill="#1E1E25"/>
<path d="M54.2857 31.6455C54.2857 32.8245 53.321 33.7807 52.1287 33.7807C50.9364 33.7807 49.9717 32.8245 49.9717 31.6455C49.9717 30.4664 50.9364 29.5103 52.1287 29.5103C53.321 29.5103 54.2857 30.4664 54.2857 31.6455Z" fill="#613394"/>
<path d="M49.1392 31.6455C49.1392 32.8245 48.1745 33.7807 46.9822 33.7807C45.7899 33.7807 44.8252 32.8245 44.8252 31.6455C44.8252 30.4664 45.7899 29.5103 46.9822 29.5103C48.1745 29.5103 49.1392 30.4664 49.1392 31.6455Z" fill="#613394"/>
<path d="M7.38891 11.5767L5.02246 10.6226C6.65178 6.60122 10.5146 4 14.8669 4C19.2191 4 22.9813 6.53694 24.6448 10.4639L22.2945 11.4562C21.0297 8.47329 18.1134 6.54698 14.8669 6.54698C11.6203 6.54698 8.6255 8.5215 7.38891 11.5787V11.5767Z" fill="#613394"/>
<path d="M73.4664 11.7375L69.0295 8.78875L63.9804 11.6652L59.0361 8.77871L54.5972 11.5185L53.2539 9.35519L58.9998 5.80789L63.9966 8.72447L69.1343 5.79785L74.8822 9.62034L73.4664 11.7375Z" fill="#613394"/>
<path d="M36.0288 36.0002H21.4717V29.5283H24.0234V33.4553H33.4751V29.6227H36.0288V36.0002Z" fill="#613394"/>
</g>
</g>
<defs>
<clipPath id="clip0_1478_109156">
<rect width="160" height="32" fill="white"/>
</clipPath>
<clipPath id="clip1_1478_109156">
<rect width="78.6667" height="32" fill="white" transform="translate(0 4)"/>
</clipPath>
</defs>
</svg>
